<?xml version="1.0" encoding="utf-8"?>
<!-- Generator: Adobe Illustrator 21.0.0, SVG Export Plug-In . SVG Version: 6.00 Build 0)  -->
<svg version="1.1" id="Capa_1" xmlns="http://www.w3.org/2000/svg" xmlns:xlink="http://www.w3.org/1999/xlink" x="0px" y="0px"
	 viewBox="0 0 294.8 294.8" style="enable-background:new 0 0 294.8 294.8;" xml:space="preserve">
<style type="text/css">
	.st0{fill:#FFFFFF;}
</style>
<g>
	<path class="st0" d="M251.6,43.2c-11.3-11.3-23.9-20.5-37.6-27.3c-3-1.5-6.6-0.3-8,2.7c-1.5,3-0.3,6.6,2.7,8
		c12.5,6.2,24.1,14.6,34.4,25c52.8,52.8,52.8,138.7,0,191.5s-138.7,52.8-191.5,0s-52.8-138.7,0-191.5C77.2,26.1,111.2,12,147.4,12
		c3.3,0,6-2.7,6-6s-2.7-6-6-6C108,0,71,15.3,43.1,43.2c-57.5,57.5-57.5,151,0,208.5c28.7,28.7,66.5,43.1,104.2,43.1
		s75.5-14.4,104.2-43.1C309.1,194.2,309.1,100.7,251.6,43.2z"/>
	<path class="st0" d="M147.4,52c-3.3,0-6,2.7-6,6v178.9c0,3.3,2.7,6,6,6s6-2.7,6-6V58C153.4,54.7,150.7,52,147.4,52z"/>
	<path class="st0" d="M171.4,153.4h65.4c3.3,0,6-2.7,6-6s-2.7-6-6-6h-65.4c-3.3,0-6,2.7-6,6S168.1,153.4,171.4,153.4z"/>
	<path class="st0" d="M58,141.4c-3.3,0-6,2.7-6,6s2.7,6,6,6h63.4c3.3,0,6-2.7,6-6s-2.7-6-6-6H58z"/>
</g>
</svg>
