<?xml version="1.0" encoding="utf-8"?>
<!-- Generator: Adobe Illustrator 21.0.0, SVG Export Plug-In . SVG Version: 6.00 Build 0)  -->
<svg version="1.1" id="Layer_1" xmlns="http://www.w3.org/2000/svg" xmlns:xlink="http://www.w3.org/1999/xlink" x="0px" y="0px"
	 viewBox="0 0 483 483" style="enable-background:new 0 0 483 483;" xml:space="preserve">
<style type="text/css">
	.st0{fill:#FFFFFF;}
</style>
<path class="st0" d="M481.4,243.4c1.2-3,0.6-6.4-1.7-8.7l-63.9-63.9c-3.1-3-8.1-3-11.2,0.1c-3.1,3.1-3.1,8.1-0.1,11.2l50.3,50.3
	H354.2V24.7c0-13.2-10.7-24-24-24H39.9c-9.1-2-18.6,0.2-25.8,6.1C6.9,12.6,2.7,21.4,2.7,30.7V404c0,10.8,7.2,20.2,17.6,23.1
	l199.7,55c7.2,2,15,0.5,20.9-4c6-4.5,9.5-11.6,9.4-19.1v-26.9h79.9c13.2,0,24-10.7,24-24V248.4h100.5l-50.3,50.3
	c-2.1,2-2.9,5-2.2,7.8c0.7,2.8,2.9,5,5.7,5.7c2.8,0.7,5.8-0.1,7.8-2.2l63.9-63.9C480.4,245.3,481,244.4,481.4,243.4z M338.2,24.7
	v207.7h-87.9V76.8c0-9.9-6.2-18.8-15.4-22.3c-0.7-0.3-1.5-0.6-2.2-0.8l-134.1-37h231.6C334.6,16.7,338.2,20.3,338.2,24.7z
	 M234.4,459c0,2.5-1.2,4.9-3.1,6.4c-2,1.5-4.6,2-7,1.3l-199.7-55c-3.5-1-5.9-4.1-5.9-7.7V30.7c0-4.6,2.1-9,5.8-11.8s8.5-3.7,13-2.5
	l191,52.6c3.5,1,5.9,4.1,5.9,7.7V459z M338.2,408.1c0,4.4-3.6,8-8,8h-79.9V248.4h87.9V408.1z"/>
</svg>
