<?xml version="1.0" encoding="utf-8"?>
<!-- Generator: Adobe Illustrator 21.0.0, SVG Export Plug-In . SVG Version: 6.00 Build 0)  -->
<svg version="1.1" id="Layer_1" xmlns="http://www.w3.org/2000/svg" xmlns:xlink="http://www.w3.org/1999/xlink" x="0px" y="0px"
	 viewBox="0 0 480 480" style="enable-background:new 0 0 480 480;" xml:space="preserve">
<style type="text/css">
	.st0{fill:#FFFFFF;}
</style>
<path class="st0" d="M240,168c-35.3,0-64,28.7-64,64c0,35.3,28.7,64,64,64c35.3,0,64-28.7,64-64C304,196.7,275.3,168.1,240,168z
	 M240,280c-26.5,0-48-21.5-48-48c0-26.5,21.5-48,48-48c26.5,0,48,21.5,48,48C288,258.5,266.5,280,240,280z"/>
<path class="st0" d="M480,240c0-113.5-79.4-211.4-190.4-234.9C178.5-18.3,66.3,39.3,20.5,143.1C-25.4,246.9,7.8,368.6,99.9,434.8
	c83.7,60.2,196.5,60.2,280.2,0C442.7,389.7,479.9,317.2,480,240z M356.6,361c-0.2-0.3-0.4-0.5-0.6-0.7c-2.8-3.5-5.8-6.9-9-10.2
	l-0.2-0.2c-3.2-3.2-6.5-6.2-10-9c-0.3-0.3-0.6-0.5-0.9-0.8c-3.4-2.7-6.9-5.2-10.5-7.5l-1.5-1c-3.5-2.2-7.2-4.2-10.9-6.1l-1.9-0.9
	c-3.7-1.8-7.6-3.4-11.5-4.8l-2-0.7c-4-1.4-8-2.6-12.1-3.5c-0.6-0.1-1.2-0.3-1.8-0.4c-4.2-1-8.5-1.7-12.8-2.2c-0.4,0-0.8-0.1-1.2-0.1
	c-4.6-0.5-9.2-0.8-13.8-0.8h-32c-4.6,0-9.2,0.3-13.8,0.8c-0.4,0-0.8,0.1-1.2,0.1c-4.3,0.5-8.6,1.3-12.8,2.2
	c-0.6,0.1-1.2,0.2-1.8,0.4c-4.1,1-8.1,2.2-12.1,3.5l-2,0.7c-3.9,1.4-7.7,3-11.5,4.8l-1.9,0.9c-3.7,1.9-7.4,3.9-10.9,6.1l-1.5,1
	c-3.6,2.3-7.1,4.8-10.5,7.5c-0.3,0.3-0.6,0.5-0.9,0.8c-3.5,2.8-6.8,5.8-10,9l-0.2,0.2c-3.2,3.2-6.2,6.6-9,10.2
	c-0.2,0.3-0.4,0.5-0.6,0.7c-49.3-47.6-64.8-120.3-39.2-183.8C109.9,113.7,171.5,72.1,240,72.1s130.1,41.6,155.8,105.1
	C421.5,240.7,406,313.4,356.6,361L356.6,361z M113.2,424.7c0.2-1.8,0.5-3.5,0.9-5.3c0.4-1.9,0.7-3.7,1.1-5.6
	c0.6-2.6,1.4-5.1,2.2-7.7c0.5-1.7,1-3.4,1.6-5.1c1-2.8,2.3-5.4,3.5-8.1c0.6-1.4,1.2-2.8,1.8-4.1C143.5,351.5,182,328,224,328h32
	c42,0,80.5,23.5,99.6,60.9c0.7,1.3,1.2,2.7,1.8,4.1c1.2,2.7,2.5,5.3,3.5,8.1c0.6,1.7,1.1,3.4,1.6,5.1c0.8,2.5,1.6,5.1,2.2,7.7
	c0.4,1.8,0.8,3.7,1.1,5.6c0.3,1.7,0.6,3.5,0.9,5.3C290.4,477.2,189.6,477.2,113.2,424.7L113.2,424.7z M381.2,413.8
	c0-0.2-0.1-0.4-0.2-0.6c-0.8-3.5-1.7-7.1-2.7-10.5c-0.2-0.7-0.5-1.4-0.7-2.2c-1-3.1-2.2-6.2-3.4-9.3c-0.2-0.5-0.4-0.9-0.5-1.4
	c-1.4-3.3-3-6.6-4.7-9.8c-0.4-0.7-0.8-1.5-1.2-2.2c-0.7-1.2-1.3-2.4-2-3.6c55.1-51.6,73.1-131.7,45.4-201.9
	C383.3,102.1,315.5,56,240,56c-75.5,0-143.4,46.1-171.1,116.4c-27.7,70.2-9.8,150.3,45.4,201.9c-0.7,1.2-1.4,2.4-2,3.6
	c-0.4,0.7-0.8,1.5-1.2,2.2c-1.7,3.2-3.3,6.4-4.7,9.8c-0.2,0.4-0.4,0.9-0.5,1.4c-1.3,3-2.4,6.1-3.4,9.3c-0.2,0.7-0.5,1.4-0.7,2.2
	c-1.1,3.5-2,7-2.7,10.5c0,0.2-0.1,0.4-0.2,0.6C25.1,354-2.8,254.4,28.9,165C60.6,75.7,145.2,16,240,16S419.3,75.7,451,165
	C482.8,254.4,454.8,354,381.2,413.8z"/>
</svg>
