<?xml version="1.0" encoding="utf-8"?>
<!-- Generator: Adobe Illustrator 21.0.0, SVG Export Plug-In . SVG Version: 6.00 Build 0)  -->
<svg version="1.1" id="Capa_1" xmlns="http://www.w3.org/2000/svg" xmlns:xlink="http://www.w3.org/1999/xlink" x="0px" y="0px"
	 viewBox="0 0 363 363" style="enable-background:new 0 0 363 363;" xml:space="preserve">
<style type="text/css">
	.st0{fill:#FFFFFF;}
</style>
<g>
	<g>
		<path class="st0" d="M181.5,0C81.4,0,0,81.4,0,181.5C0,281.6,81.4,363,181.5,363C281.6,363,363,281.6,363,181.5
			C363,81.4,281.6,0,181.5,0z M181.5,351.3c-93.6,0-169.8-76.2-169.8-169.8S87.9,11.7,181.5,11.7c93.6,0,169.8,76.2,169.8,169.8
			S275.1,351.3,181.5,351.3z"/>
		<polygon class="st0" points="187.4,111.2 175.7,111.2 175.7,175.7 111.2,175.7 111.2,187.4 175.7,187.4 175.7,251.8 187.4,251.8 
			187.4,187.4 251.8,187.4 251.8,175.7 187.4,175.7 		"/>
	</g>
</g>
</svg>
