<?xml version="1.0" encoding="utf-8"?>
<!-- Generator: Adobe Illustrator 21.0.0, SVG Export Plug-In . SVG Version: 6.00 Build 0)  -->
<svg version="1.1" id="Layer_1" xmlns="http://www.w3.org/2000/svg" xmlns:xlink="http://www.w3.org/1999/xlink" x="0px" y="0px"
	 viewBox="0 0 480 480" style="enable-background:new 0 0 480 480;" xml:space="preserve">
<style type="text/css">
	.st0{fill:#FFFFFF;}
</style>
<path class="st0" d="M290.7,75.9C231.4,16.6,135.3,16.6,76,75.9c-59.3,59.3-59.3,155.5,0,214.8c59.3,59.3,155.4,59.3,214.8,0.1
	C350,231.4,350,135.3,290.7,75.9z M87.1,279.5C34,226.4,34,140.3,87.1,87.2c53.1-53.1,139.2-53.1,192.3,0
	c53.1,53.1,53.1,139.2,0,192.3C226.3,332.5,140.3,332.5,87.1,279.5z"/>
<path class="st0" d="M468.4,411.9L364.3,307.8l5.7-5.7c3.1-3.1,3.1-8.2,0-11.3l-23.2-23.2c41.4-80.4,18-179-55.1-232.2
	c-73.1-53.3-174-45.4-238,18.5s-71.7,164.9-18.4,238c53.3,73,151.9,96.3,232.3,54.9l23.2,23.2c3.1,3.1,8.2,3.1,11.3,0l5.7-5.7
	l104.1,104.1c15.6,15.5,40.9,15.4,56.4-0.1C483.9,452.8,483.9,427.5,468.4,411.9z M64.5,302.1c-65.7-65.6-65.7-172-0.1-237.7
	c65.6-65.6,172-65.6,237.7,0c65.6,65.6,65.6,172.1-0.1,237.7c-2.7,2.7-5.6,5.4-8.5,7.9c-8.7,7.6-18.3,14.3-28.4,20
	C199.5,366.4,117.7,355.1,64.5,302.1z M282,338.6c0.4-0.2,0.7-0.5,1-0.7c1-0.6,1.9-1.3,2.9-1.9c2.3-1.5,4.5-3.1,6.7-4.8
	c1.1-0.8,2.1-1.6,3.2-2.4c2.1-1.7,4.2-3.4,6.3-5.2c0.9-0.8,1.8-1.5,2.7-2.3c2.9-2.6,5.7-5.2,8.5-7.9c2.7-2.7,5.4-5.6,7.9-8.5
	c0.8-0.9,1.6-1.8,2.3-2.7c1.8-2.1,3.5-4.2,5.2-6.3c0.8-1.1,1.6-2.1,2.4-3.2c1.7-2.2,3.3-4.5,4.8-6.8c0.6-0.9,1.3-1.9,1.9-2.8
	c0.2-0.4,0.5-0.7,0.7-1l14.4,14.4L296.4,353L282,338.6z M457.1,457.1c-9.5,9.1-24.4,9.1-33.9,0L319,353l33.9-33.9l104.1,104.2
	C466.5,432.6,466.5,447.8,457.1,457.1L457.1,457.1z"/>
</svg>
