<?xml version="1.0" encoding="utf-8"?>
<!-- Generator: Adobe Illustrator 21.0.0, SVG Export Plug-In . SVG Version: 6.00 Build 0)  -->
<svg version="1.1" id="Layer_1" xmlns="http://www.w3.org/2000/svg" xmlns:xlink="http://www.w3.org/1999/xlink" x="0px" y="0px"
	 viewBox="0 0 474 474" style="enable-background:new 0 0 474 474;" xml:space="preserve">
<style type="text/css">
	.st0{fill:#FFFFFF;}
</style>
<path class="st0" d="M452.4,197.7c6.5-8.1,7.1-19.4,1.4-28.1c-5.6-8.7-16.2-12.8-26.3-10.1L323,187.5c-3.3,0.9-6.9-0.5-8.8-3.4
	l-58.9-90.7c-5.6-8.7-16.3-12.8-26.3-10.1c-10,2.7-17.2,11.5-17.7,21.9l-5.7,108c-0.2,3.5-2.6,6.4-5.9,7.3l-104.5,28
	c-10,2.7-17.2,11.5-17.7,21.9c-0.5,10.4,5.7,19.9,15.3,23.6l101,38.7c3.2,1.2,5.3,4.4,5.1,7.9l-5.7,108.1
	c-0.7,10.4,5.6,20,15.3,23.6c2.8,1.1,5.8,1.6,8.8,1.6c7.2,0,14-3.3,18.4-8.9L304,381c2.2-2.7,5.8-3.6,9.1-2.4l101,38.8
	c9.7,3.7,20.7,0.8,27.2-7.3c6.5-8.1,7.1-19.4,1.5-28.1l-58.9-90.8c-1.9-2.9-1.7-6.7,0.5-9.4L452.4,197.7z M370.4,299.9l58.9,90.7
	c1.9,2.9,1.7,6.7-0.5,9.4c-2.2,2.7-5.9,3.7-9.1,2.4l-101-38.8c-9.7-3.8-20.7-0.8-27.2,7.3L223.5,455c-2.2,2.7-5.8,3.7-9.1,2.4
	c-3.2-1.2-5.3-4.4-5.1-7.9l5.7-108c0.6-10.4-5.6-19.9-15.3-23.6l-101-38.8c-3.2-1.2-5.3-4.4-5.1-7.9c0.2-3.5,2.6-6.4,5.9-7.3
	l104.5-28c10-2.7,17.2-11.5,17.7-21.9l5.7-108c0.1-3.5,2.5-6.5,5.9-7.3c0.7-0.2,1.5-0.3,2.2-0.3c2.7,0,5.2,1.4,6.5,3.7l58.9,90.7
	c5.6,8.7,16.3,12.8,26.3,10.1l104.5-28c3.4-0.9,6.9,0.4,8.8,3.4c1.9,2.9,1.7,6.7-0.5,9.4l-68.1,84
	C365.3,279.8,364.7,291.2,370.4,299.9z"/>
<path class="st0" d="M108.9,130.2l33,12.6c6.5,2.5,13.8,0.6,18.2-4.8s4.8-13,1-18.8l-19.2-29.6L164,62.2c4.4-5.4,4.7-12.9,1-18.7
	c-3.8-5.8-10.8-8.5-17.5-6.7l-34.1,9.1L94.1,16.2c-3.8-5.8-10.8-8.5-17.5-6.7c-6.7,1.8-11.4,7.7-11.8,14.5L63,59.3l-34.2,9.1
	c-6.7,1.8-11.5,7.7-11.8,14.6c-0.4,6.9,3.8,13.3,10.2,15.7l33,12.7l-1.9,35.3c-0.4,6.9,3.7,13.3,10.2,15.7c1.9,0.7,3.8,1.1,5.8,1.1
	c4.8,0,9.3-2.2,12.3-6L108.9,130.2z M74.3,147.6l1.9-35.3c0.4-6.9-3.8-13.3-10.2-15.7l-33-12.7l34.1-9.1c6.7-1.8,11.5-7.7,11.8-14.6
	l1.8-35.4l0.1,0.1l19.2,29.6c3.8,5.8,10.8,8.5,17.5,6.7l34.2-9.1l-22.2,27.5c-4.4,5.4-4.8,12.9-1,18.7l19.2,29.6l-33-12.7
	c-6.5-2.5-13.8-0.5-18.1,4.9L74.3,147.6z"/>
<path class="st0" d="M366.1,59.4l-17.3,26.6c-1.9,2.9-1.7,6.7,0.5,9.4c2.2,2.7,5.9,3.7,9.1,2.4L388,86.5l20,24.7
	c2.2,2.7,5.8,3.7,9.1,2.4c3.2-1.2,5.3-4.4,5.1-7.9L420.5,74l29.6-11.4c3.2-1.2,5.3-4.4,5.1-7.9c-0.2-3.5-2.6-6.4-5.9-7.3l-30.7-8.2
	L417,7.6c-0.2-3.4-2.6-6.4-5.9-7.3c-3.3-0.9-6.9,0.5-8.8,3.4L385,30.2L354.4,22c-3.3-0.9-6.9,0.5-8.7,3.4c-1.9,2.9-1.7,6.7,0.5,9.4
	L366.1,59.4z M386.5,47.2c3.3,0.9,6.9-0.5,8.8-3.4l7.1-10.9l0.7,13c0.2,3.5,2.6,6.4,5.9,7.3l12.5,3.4l-12.1,4.6
	c-3.2,1.2-5.3,4.4-5.1,7.9l0.7,12.9l-8.2-10.1c-2.2-2.7-5.8-3.6-9.1-2.4l-12.2,4.6l7.1-10.9c1.9-2.9,1.7-6.7-0.5-9.4L374,43.8
	L386.5,47.2z"/>
</svg>
