<?xml version="1.0" encoding="utf-8"?>
<!-- Generator: Adobe Illustrator 21.0.0, SVG Export Plug-In . SVG Version: 6.00 Build 0)  -->
<svg version="1.1" id="Layer_1" xmlns="http://www.w3.org/2000/svg" xmlns:xlink="http://www.w3.org/1999/xlink" x="0px" y="0px"
	 viewBox="0 0 480 480" style="enable-background:new 0 0 480 480;" xml:space="preserve">
<style type="text/css">
	.st0{fill:#FFFFFF;}
</style>
<path class="st0" d="M456,16H24C10.7,16,0,26.7,0,40v304c0,13.3,10.7,24,24,24h184v48H96c-4.4,0-8,3.6-8,8v32c0,4.4,3.6,8,8,8h288
	c4.4,0,8-3.6,8-8v-32c0-4.4-3.6-8-8-8H272v-48h184c13.3,0,24-10.7,24-24V40C480,26.7,469.3,16,456,16z M376,448H104v-16h272V448z
	 M256,416h-32v-48h32V416z M464,344c0,4.4-3.6,8-8,8H24c-4.4,0-8-3.6-8-8V40c0-4.4,3.6-8,8-8h432c4.4,0,8,3.6,8,8V344z"/>
<path class="st0" d="M347.6,184.8l-160-80c-2.5-1.2-5.4-1.1-7.8,0.4c-2.4,1.5-3.8,4-3.8,6.8v160c0,2.8,1.4,5.4,3.8,6.8
	c2.4,1.5,5.3,1.6,7.8,0.4l160-80c2.7-1.4,4.4-4.1,4.4-7.2C352,189,350.3,186.2,347.6,184.8L347.6,184.8z M192,259.1V124.9L326.1,192
	L192,259.1z"/>
</svg>
